<?xml version="1.0" standalone="no"?>
<!DOCTYPE svg PUBLIC "-//W3C//DTD SVG 20010904//EN"
 "http://www.w3.org/TR/2001/REC-SVG-20010904/DTD/svg10.dtd">
<svg version="1.0" xmlns="http://www.w3.org/2000/svg"
 width="345.000000pt" height="345.000000pt" viewBox="0 0 345.000000 345.000000"
 preserveAspectRatio="xMidYMid meet">

<g transform="translate(0.000000,345.000000) scale(0.100000,-0.100000)"
fill="#000000" stroke="none">
<path d="M1620 3335 c-44 -46 -157 -124 -239 -164 -113 -57 -195 -74 -379 -75
l-164 -1 -13 -25 c-26 -46 -24 -54 88 -290 64 -136 193 -414 226 -486 l33 -72
-74 -93 c-197 -248 -312 -414 -405 -584 -97 -179 -146 -347 -159 -556 -8 -120
4 -204 43 -319 32 -95 42 -114 116 -224 70 -103 336 -380 361 -374 8 1 221
165 471 363 251 198 462 361 470 363 16 4 25 -29 25 -98 0 -30 5 -71 10 -90
41 -160 81 -247 151 -328 56 -64 219 -212 234 -212 12 0 648 551 652 565 2 6
-10 26 -26 45 -33 39 -25 41 -116 -30 -54 -41 -63 -45 -116 -45 -50 0 -62 4
-89 30 -20 19 -38 53 -53 100 l-22 70 0 940 0 940 23 79 c26 93 78 204 156
333 31 51 56 97 56 102 0 13 -53 41 -77 41 -12 0 -33 -21 -53 -52 -51 -75 -78
-92 -161 -96 -184 -11 -621 116 -842 244 -32 19 -66 34 -76 34 -9 0 -32 -16
-51 -35z m-290 -465 c184 -56 412 -126 505 -154 l170 -52 3 -402 c1 -236 -2
-402 -7 -402 -9 0 -67 26 -301 135 -398 186 -388 181 -403 217 -8 18 -37 80
-65 138 -27 58 -89 188 -137 290 -48 102 -102 217 -121 256 -42 87 -42 95 -6
85 15 -5 178 -54 362 -111z m155 -894 c121 -57 288 -135 370 -173 l150 -70 2
-389 c3 -423 6 -401 -57 -444 -30 -21 -175 -136 -348 -277 -29 -24 -60 -43
-68 -43 -36 0 -186 138 -273 250 -57 73 -136 237 -163 335 -29 109 -32 359 -5
485 35 164 134 430 160 430 7 0 112 -47 232 -104z"/>
</g>
</svg>
